<svg xmlns="http://www.w3.org/2000/svg" width="963" height="1800" viewBox="0 0 963 1800" role="img" aria-label="PDF解析 — 検査と並列処理" style="font-family:Inter, &quot;Noto Sans JP&quot;, -apple-system, BlinkMacSystemFont, &quot;Segoe UI&quot;, sans-serif;background:#fff"><title>PDF解析 — 検査と並列処理</title><desc>10 nodes and 11 connections. PDFを受け付ける, 受付可能？, 並列処理, 本文を抽出する, プレビューを生成する, 両方完了, 解析結果を保存する, 受付エラーを返す, 開始, 終了.</desc><defs><marker id="archmap-solid-half-top" viewBox="-24 -9 26 18" markerWidth="26" markerHeight="18" refX="0" refY="0" orient="auto-start-reverse" markerUnits="userSpaceOnUse"><g stroke="#526981" stroke-width="1.5" fill="none"><path d="M -9 -6 L 0 0 H -9 Z" fill="#7b8ba0"/></g></marker><marker id="archmap-solid-half-bottom" viewBox="-24 -9 26 18" markerWidth="26" markerHeight="18" refX="0" refY="0" orient="auto-start-reverse" markerUnits="userSpaceOnUse"><g stroke="#526981" stroke-width="1.5" fill="none"><path d="M -9 6 L 0 0 H -9 Z" fill="#7b8ba0"/></g></marker><marker id="archmap-open-half-top" viewBox="-24 -9 26 18" markerWidth="26" markerHeight="18" refX="0" refY="0" orient="auto-start-reverse" markerUnits="userSpaceOnUse"><g stroke="#526981" stroke-width="1.5" fill="none"><path d="M -9 -6 L 0 0"/></g></marker><marker id="archmap-open-half-bottom" viewBox="-24 -9 26 18" markerWidth="26" markerHeight="18" refX="0" refY="0" orient="auto-start-reverse" markerUnits="userSpaceOnUse"><g stroke="#526981" stroke-width="1.5" fill="none"><path d="M -9 6 L 0 0"/></g></marker><marker id="archmap-one" viewBox="-24 -9 26 18" markerWidth="26" markerHeight="18" refX="0" refY="0" orient="auto-start-reverse" markerUnits="userSpaceOnUse"><g stroke="#526981" stroke-width="1.5" fill="none"><path d="M -5 -6 V 6 M -11 -6 V 6"/></g></marker><marker id="archmap-zero-one" viewBox="-24 -9 26 18" markerWidth="26" markerHeight="18" refX="0" refY="0" orient="auto-start-reverse" markerUnits="userSpaceOnUse"><g stroke="#526981" stroke-width="1.5" fill="none"><path d="M -5 -6 V 6"/><circle cx="-15" cy="0" r="4" fill="#fff"/></g></marker><marker id="archmap-many" viewBox="-24 -9 26 18" markerWidth="26" markerHeight="18" refX="0" refY="0" orient="auto-start-reverse" markerUnits="userSpaceOnUse"><g stroke="#526981" stroke-width="1.5" fill="none"><path d="M 0 -6 L -10 0 L 0 6 M -15 -6 V 6"/></g></marker><marker id="archmap-zero-many" viewBox="-24 -9 26 18" markerWidth="26" markerHeight="18" refX="0" refY="0" orient="auto-start-reverse" markerUnits="userSpaceOnUse"><g stroke="#526981" stroke-width="1.5" fill="none"><path d="M 0 -6 L -10 0 L 0 6"/><circle cx="-17" cy="0" r="4" fill="#fff"/></g></marker><marker id="archmap-generalization" viewBox="-24 -9 26 18" markerWidth="26" markerHeight="18" refX="0" refY="0" orient="auto-start-reverse" markerUnits="userSpaceOnUse"><g stroke="#526981" stroke-width="1.5" fill="none"><path d="M 0 0 L -13 -7 L -13 7 Z" fill="#fff"/></g></marker><marker id="archmap-circle" viewBox="-24 -9 26 18" markerWidth="26" markerHeight="18" refX="0" refY="0" orient="auto-start-reverse" markerUnits="userSpaceOnUse"><g stroke="#526981" stroke-width="1.5" fill="none"><circle cx="-4" cy="0" r="4" fill="#fff"/></g></marker><marker id="archmap-cross" viewBox="-24 -9 26 18" markerWidth="26" markerHeight="18" refX="0" refY="0" orient="auto-start-reverse" markerUnits="userSpaceOnUse"><g stroke="#526981" stroke-width="1.5" fill="none"><path d="M -8 -4 L 0 4 M -8 4 L 0 -4"/></g></marker><marker id="archmap-arrow-filled" markerWidth="8" markerHeight="8" refX="7" refY="4" orient="auto-start-reverse" markerUnits="userSpaceOnUse"><path d="M 0 0 L 8 4 L 0 8 Z" fill="#7b8ba0"/></marker><marker id="archmap-arrow" viewBox="0 0 10 10" refX="8.7" refY="5" markerWidth="6" markerHeight="6" orient="auto-start-reverse"><path d="M 1 1 L 9 5 L 1 9" fill="none" stroke="#7b8ba0" stroke-width="1.7" stroke-linejoin="round"/></marker><marker id="archmap-arrow-start" viewBox="0 0 10 10" refX="8.7" refY="5" markerWidth="6" markerHeight="6" orient="auto-start-reverse"><path d="M 1 1 L 9 5 L 1 9" fill="none" stroke="#7b8ba0" stroke-width="1.7" stroke-linejoin="round"/></marker></defs><rect width="100%" height="100%" fill="#fff"/><text x="36" y="42" font-size="19" font-weight="650" fill="#26364b" text-anchor="start"><tspan x="36" dy="0">PDF解析 — 検査と並列処理</tspan></text><path class="archmap-edge" d="M 240 256 L 240 372" fill="none" stroke="#7b8ba0" stroke-width="1.6" stroke-linejoin="round" stroke-linecap="round" marker-end="url(#archmap-arrow)"/><path class="archmap-edge" d="M 240 460 L 240 550" fill="none" stroke="#7b8ba0" stroke-width="1.6" stroke-linejoin="round" stroke-linecap="round" marker-end="url(#archmap-arrow)"/><path class="archmap-edge" d="M 240 690 L 240 819" fill="none" stroke="#7b8ba0" stroke-width="1.6" stroke-linejoin="round" stroke-linecap="round" marker-end="url(#archmap-arrow)"/><path class="archmap-edge" d="M 380 620 L 690 620 L 690 780" fill="none" stroke="#7b8ba0" stroke-width="1.6" stroke-linejoin="round" stroke-linecap="round" marker-end="url(#archmap-arrow)"/><path class="archmap-edge" d="M 240 829 L 240 984" fill="none" stroke="#7b8ba0" stroke-width="1.6" stroke-linejoin="round" stroke-linecap="round" marker-end="url(#archmap-arrow)"/><path class="archmap-edge" d="M 292 829 L 292 906.5 L 690 906.5 L 690 984" fill="none" stroke="#7b8ba0" stroke-width="1.6" stroke-linejoin="round" stroke-linecap="round" marker-end="url(#archmap-arrow)"/><path class="archmap-edge" d="M 240 1072 L 240 1227" fill="none" stroke="#7b8ba0" stroke-width="1.6" stroke-linejoin="round" stroke-linecap="round" marker-end="url(#archmap-arrow)"/><path class="archmap-edge" d="M 690 1072 L 690 1149.5 L 292 1149.5 L 292 1227" fill="none" stroke="#7b8ba0" stroke-width="1.6" stroke-linejoin="round" stroke-linecap="round" marker-end="url(#archmap-arrow)"/><path class="archmap-edge" d="M 240 1237 L 240 1392" fill="none" stroke="#7b8ba0" stroke-width="1.6" stroke-linejoin="round" stroke-linecap="round" marker-end="url(#archmap-arrow)"/><path class="archmap-edge" d="M 240 1480 L 240 1596" fill="none" stroke="#7b8ba0" stroke-width="1.6" stroke-linejoin="round" stroke-linecap="round" marker-end="url(#archmap-arrow)"/><path class="archmap-edge" d="M 690 868 L 690 884 L 915 884 L 915 1640 L 360 1640" fill="none" stroke="#7b8ba0" stroke-width="1.6" stroke-linejoin="round" stroke-linecap="round" marker-end="url(#archmap-arrow)"/><g class="archmap-node" data-node="receive"><title>PDFを受け付ける</title><rect x="120" y="372" width="240" height="88" rx="12" fill="#fff" stroke="#b9d2f5" stroke-width="1.4"/><rect x="120" y="387" width="3" height="58" rx="1.5" fill="#2873dc"/><text x="142" y="420.5" font-size="15" font-weight="600" fill="#25364b" text-anchor="start"><tspan x="142" dy="0">PDFを受け付ける</tspan></text></g><g class="archmap-node" data-node="valid"><title>受付可能？</title><path d="M 240 550 L 380 620 L 240 690 L 100 620 Z" fill="#edf4ff" stroke="#b9d2f5" stroke-width="1.4"/><text x="240" y="624.5" font-size="15" font-weight="600" fill="#25364b" text-anchor="middle"><tspan x="240" dy="0">受付可能？</tspan></text></g><g class="archmap-node archmap-junction" data-node="parallel" data-kind="fork"><title>並列処理</title><rect x="180" y="819" width="120" height="10" rx="2" fill="#2873dc"/><text x="324" y="827.5" font-size="12" font-weight="600" fill="#334155" text-anchor="start"><tspan x="324" dy="0">並列処理</tspan></text></g><g class="archmap-node" data-node="extract"><title>本文を抽出する</title><rect x="120" y="984" width="240" height="88" rx="12" fill="#fff" stroke="#b9d2f5" stroke-width="1.4"/><rect x="120" y="999" width="3" height="58" rx="1.5" fill="#2873dc"/><text x="142" y="1032.5" font-size="15" font-weight="600" fill="#25364b" text-anchor="start"><tspan x="142" dy="0">本文を抽出する</tspan></text></g><g class="archmap-node" data-node="preview"><title>プレビューを生成する</title><rect x="570" y="984" width="240" height="88" rx="12" fill="#fff" stroke="#b9d2f5" stroke-width="1.4"/><rect x="570" y="999" width="3" height="58" rx="1.5" fill="#2873dc"/><text x="592" y="1032.5" font-size="15" font-weight="600" fill="#25364b" text-anchor="start"><tspan x="592" dy="0">プレビューを生成する</tspan></text></g><g class="archmap-node archmap-junction" data-node="complete" data-kind="join"><title>両方完了</title><rect x="180" y="1227" width="120" height="10" rx="2" fill="#2873dc"/><text x="324" y="1235.5" font-size="12" font-weight="600" fill="#334155" text-anchor="start"><tspan x="324" dy="0">両方完了</tspan></text></g><g class="archmap-node" data-node="save"><title>解析結果を保存する</title><rect x="120" y="1392" width="240" height="88" rx="12" fill="#fff" stroke="#b9d2f5" stroke-width="1.4"/><rect x="120" y="1407" width="3" height="58" rx="1.5" fill="#2873dc"/><text x="142" y="1440.5" font-size="15" font-weight="600" fill="#25364b" text-anchor="start"><tspan x="142" dy="0">解析結果を保存する</tspan></text></g><g class="archmap-node" data-node="reject"><title>受付エラーを返す</title><rect x="570" y="780" width="240" height="88" rx="12" fill="#fff" stroke="#b9d2f5" stroke-width="1.4"/><rect x="570" y="795" width="3" height="58" rx="1.5" fill="#2873dc"/><text x="592" y="828.5" font-size="15" font-weight="600" fill="#25364b" text-anchor="start"><tspan x="592" dy="0">受付エラーを返す</tspan></text></g><g class="archmap-node" data-node="root_start"><title>開始</title><rect x="120" y="168" width="240" height="88" rx="44" fill="#edf4ff" stroke="#2873dc" stroke-width="1.4"/><text x="240" y="216.5" font-size="15" font-weight="600" fill="#25364b" text-anchor="middle"><tspan x="240" dy="0">開始</tspan></text></g><g class="archmap-node" data-node="root_end"><title>終了</title><rect x="120" y="1596" width="240" height="88" rx="44" fill="#edf4ff" stroke="#2873dc" stroke-width="2.8"/><text x="240" y="1644.5" font-size="15" font-weight="600" fill="#25364b" text-anchor="middle"><tspan x="240" dy="0">終了</tspan></text></g><g class="archmap-edge-label"><rect x="218.28" y="741.5" width="43.44" height="26" rx="5" fill="#fff" stroke="#e8edf4" stroke-width=".8"/><text x="240" y="758.5" font-size="12" font-weight="500" fill="#53647a" text-anchor="middle"><tspan x="240" dy="0">はい</tspan></text></g><g class="archmap-edge-label"><rect x="506.92" y="607" width="56.160000000000004" height="26" rx="5" fill="#fff" stroke="#e8edf4" stroke-width=".8"/><text x="535" y="624" font-size="12" font-weight="500" fill="#53647a" text-anchor="middle"><tspan x="535" dy="0">いいえ</tspan></text></g></svg>